<svg width="224" height="24" viewBox="0 0 224 24" fill="none" xmlns="http://www.w3.org/2000/svg">
<path d="M11 7V13L16.2 16.1L17 14.9L12.5 12.2V7H11ZM20 12V18H22V12H20ZM20 20V22H22V20H20ZM18 20C16.3 21.3 14.3 22 12 22C6.49998 22 1.99998 17.5 1.99998 12C1.99998 6.5 6.49998 2 12 2C16.8 2 20.9 5.4 21.8 10H19.7C18.8 6.6 15.7 4 12 4C7.59998 4 3.99998 7.6 3.99998 12C3.99998 16.4 7.59998 20 12 20C14.4 20 16.5 18.9 18 17.3V20Z" fill="#DE4313"/>
<path d="M41.04 11.209V11.8379C41.04 12.5853 40.9466 13.2552 40.7598 13.8477C40.5729 14.4401 40.304 14.9437 39.9531 15.3584C39.6022 15.7731 39.1807 16.0898 38.6885 16.3086C38.2008 16.5273 37.654 16.6367 37.0479 16.6367C36.46 16.6367 35.9199 16.5273 35.4277 16.3086C34.9401 16.0898 34.5163 15.7731 34.1562 15.3584C33.8008 14.9437 33.5251 14.4401 33.3291 13.8477C33.1331 13.2552 33.0352 12.5853 33.0352 11.8379V11.209C33.0352 10.4616 33.1309 9.79395 33.3223 9.20605C33.5182 8.61361 33.7939 8.11003 34.1494 7.69531C34.5049 7.27604 34.9264 6.95703 35.4141 6.73828C35.9062 6.51953 36.4463 6.41016 37.0342 6.41016C37.6403 6.41016 38.1872 6.51953 38.6748 6.73828C39.167 6.95703 39.5885 7.27604 39.9395 7.69531C40.2949 8.11003 40.5661 8.61361 40.7529 9.20605C40.9443 9.79395 41.04 10.4616 41.04 11.209ZM39.7344 11.8379V11.1953C39.7344 10.6029 39.6729 10.0788 39.5498 9.62305C39.4313 9.16732 39.2559 8.78451 39.0234 8.47461C38.791 8.16471 38.5062 7.93001 38.1689 7.77051C37.8363 7.611 37.458 7.53125 37.0342 7.53125C36.624 7.53125 36.2526 7.611 35.9199 7.77051C35.5918 7.93001 35.3092 8.16471 35.0723 8.47461C34.8398 8.78451 34.6598 9.16732 34.5322 9.62305C34.4046 10.0788 34.3408 10.6029 34.3408 11.1953V11.8379C34.3408 12.4349 34.4046 12.9635 34.5322 13.4238C34.6598 13.8796 34.8421 14.2646 35.0791 14.5791C35.3206 14.889 35.6055 15.1237 35.9336 15.2832C36.2663 15.4427 36.6377 15.5225 37.0479 15.5225C37.4762 15.5225 37.8568 15.4427 38.1895 15.2832C38.5221 15.1237 38.8024 14.889 39.0303 14.5791C39.2627 14.2646 39.4382 13.8796 39.5566 13.4238C39.6751 12.9635 39.7344 12.4349 39.7344 11.8379ZM44.7109 16.5H43.4463V8.32422C43.4463 7.79102 43.542 7.34212 43.7334 6.97754C43.9294 6.6084 44.2096 6.3304 44.5742 6.14355C44.9388 5.95215 45.3717 5.85645 45.873 5.85645C46.0189 5.85645 46.1647 5.86556 46.3105 5.88379C46.4609 5.90202 46.6068 5.92936 46.748 5.96582L46.6797 6.99805C46.584 6.97526 46.4746 6.95931 46.3516 6.9502C46.2331 6.94108 46.1146 6.93652 45.9961 6.93652C45.7272 6.93652 45.4948 6.99121 45.2988 7.10059C45.1074 7.2054 44.9616 7.36035 44.8613 7.56543C44.7611 7.77051 44.7109 8.02344 44.7109 8.32422V16.5ZM46.2832 9.10352V10.0742H42.2773V9.10352H46.2832ZM49.5781 16.5H48.3135V8.32422C48.3135 7.79102 48.4092 7.34212 48.6006 6.97754C48.7965 6.6084 49.0768 6.3304 49.4414 6.14355C49.806 5.95215 50.2389 5.85645 50.7402 5.85645C50.8861 5.85645 51.0319 5.86556 51.1777 5.88379C51.3281 5.90202 51.474 5.92936 51.6152 5.96582L51.5469 6.99805C51.4512 6.97526 51.3418 6.95931 51.2188 6.9502C51.1003 6.94108 50.9818 6.93652 50.8633 6.93652C50.5944 6.93652 50.362 6.99121 50.166 7.10059C49.9746 7.2054 49.8288 7.36035 49.7285 7.56543C49.6283 7.77051 49.5781 8.02344 49.5781 8.32422V16.5ZM51.1504 9.10352V10.0742H47.1445V9.10352H51.1504ZM55.4639 16.6367C54.9489 16.6367 54.4818 16.5501 54.0625 16.377C53.6478 16.1992 53.29 15.9508 52.9893 15.6318C52.693 15.3128 52.4652 14.9346 52.3057 14.4971C52.1462 14.0596 52.0664 13.5811 52.0664 13.0615V12.7744C52.0664 12.1729 52.1553 11.6374 52.333 11.168C52.5107 10.694 52.7523 10.293 53.0576 9.96484C53.363 9.63672 53.7093 9.38835 54.0967 9.21973C54.484 9.05111 54.8851 8.9668 55.2998 8.9668C55.8285 8.9668 56.2842 9.05794 56.667 9.24023C57.0544 9.42253 57.3711 9.67773 57.6172 10.0059C57.8633 10.3294 58.0456 10.7122 58.1641 11.1543C58.2826 11.5918 58.3418 12.0703 58.3418 12.5898V13.1572H52.8184V12.125H57.0771V12.0293C57.0589 11.7012 56.9906 11.3822 56.8721 11.0723C56.7581 10.7624 56.5758 10.5072 56.3252 10.3066C56.0745 10.1061 55.7327 10.0059 55.2998 10.0059C55.0127 10.0059 54.7484 10.0674 54.5068 10.1904C54.2653 10.3089 54.0579 10.4867 53.8848 10.7236C53.7116 10.9606 53.5771 11.25 53.4814 11.5918C53.3857 11.9336 53.3379 12.3278 53.3379 12.7744V13.0615C53.3379 13.4124 53.3857 13.7428 53.4814 14.0527C53.5817 14.3581 53.7253 14.627 53.9121 14.8594C54.1035 15.0918 54.3337 15.2741 54.6025 15.4062C54.876 15.5384 55.1859 15.6045 55.5322 15.6045C55.9788 15.6045 56.3571 15.5133 56.667 15.3311C56.9769 15.1488 57.248 14.9049 57.4805 14.5996L58.2461 15.208C58.0866 15.4495 57.8838 15.6797 57.6377 15.8984C57.3916 16.1172 57.0885 16.2949 56.7285 16.4316C56.373 16.5684 55.9515 16.6367 55.4639 16.6367ZM61.083 10.2656V16.5H59.8184V9.10352H61.0488L61.083 10.2656ZM63.3936 9.0625L63.3867 10.2383C63.2819 10.2155 63.1816 10.2018 63.0859 10.1973C62.9948 10.1882 62.89 10.1836 62.7715 10.1836C62.4798 10.1836 62.2223 10.2292 61.999 10.3203C61.7757 10.4115 61.5866 10.5391 61.4316 10.7031C61.2767 10.8672 61.1536 11.0632 61.0625 11.291C60.9759 11.5143 60.9189 11.7604 60.8916 12.0293L60.5361 12.2344C60.5361 11.7878 60.5794 11.3685 60.666 10.9766C60.7572 10.5846 60.8962 10.2383 61.083 9.9375C61.2699 9.63216 61.5068 9.39518 61.7939 9.22656C62.0856 9.05339 62.432 8.9668 62.833 8.9668C62.9242 8.9668 63.029 8.97819 63.1475 9.00098C63.266 9.01921 63.348 9.03971 63.3936 9.0625ZM70.2842 15.3584L72.3076 9.10352H73.5996L70.9404 16.5H70.0928L70.2842 15.3584ZM68.5957 9.10352L70.6807 15.3926L70.8242 16.5H69.9766L67.2969 9.10352H68.5957ZM79.0684 15.2354V11.4277C79.0684 11.1361 79.0091 10.8831 78.8906 10.6689C78.7767 10.4502 78.6035 10.2816 78.3711 10.1631C78.1387 10.0446 77.8516 9.98535 77.5098 9.98535C77.1908 9.98535 76.9105 10.04 76.6689 10.1494C76.432 10.2588 76.2451 10.4023 76.1084 10.5801C75.9762 10.7578 75.9102 10.9492 75.9102 11.1543H74.6455C74.6455 10.89 74.7139 10.6279 74.8506 10.3682C74.9873 10.1084 75.1833 9.8737 75.4385 9.66406C75.6982 9.44987 76.0081 9.28125 76.3682 9.1582C76.7327 9.0306 77.1383 8.9668 77.585 8.9668C78.1227 8.9668 78.5967 9.05794 79.0068 9.24023C79.4215 9.42253 79.7451 9.69824 79.9775 10.0674C80.2145 10.432 80.333 10.89 80.333 11.4414V14.8867C80.333 15.1328 80.3535 15.3949 80.3945 15.6729C80.4401 15.9508 80.5062 16.1901 80.5928 16.3906V16.5H79.2734C79.2096 16.3542 79.1595 16.1605 79.123 15.9189C79.0866 15.6729 79.0684 15.445 79.0684 15.2354ZM79.2871 12.0156L79.3008 12.9043H78.0225C77.6624 12.9043 77.3411 12.9339 77.0586 12.9932C76.776 13.0479 76.5391 13.1322 76.3477 13.2461C76.1562 13.36 76.0104 13.5036 75.9102 13.6768C75.8099 13.8454 75.7598 14.0436 75.7598 14.2715C75.7598 14.5039 75.8122 14.7158 75.917 14.9072C76.0218 15.0986 76.179 15.2513 76.3887 15.3652C76.6029 15.4746 76.8649 15.5293 77.1748 15.5293C77.5622 15.5293 77.904 15.4473 78.2002 15.2832C78.4964 15.1191 78.7311 14.9186 78.9043 14.6816C79.082 14.4447 79.1777 14.2145 79.1914 13.9912L79.7314 14.5996C79.6995 14.791 79.613 15.0029 79.4717 15.2354C79.3304 15.4678 79.1413 15.6911 78.9043 15.9053C78.6719 16.1149 78.3939 16.2904 78.0703 16.4316C77.7513 16.5684 77.3913 16.6367 76.9902 16.6367C76.4889 16.6367 76.0492 16.5387 75.6709 16.3428C75.2972 16.1468 75.0055 15.8848 74.7959 15.5566C74.5908 15.224 74.4883 14.8525 74.4883 14.4424C74.4883 14.0459 74.5658 13.6973 74.7207 13.3965C74.8757 13.0911 75.099 12.8382 75.3906 12.6377C75.6823 12.4326 76.0332 12.2777 76.4434 12.1729C76.8535 12.068 77.3115 12.0156 77.8174 12.0156H79.2871ZM83.6963 6V16.5H82.4248V6H83.6963ZM87.1006 9.10352V16.5H85.8291V9.10352H87.1006ZM85.7334 7.1416C85.7334 6.93652 85.7949 6.76335 85.918 6.62207C86.0456 6.48079 86.2324 6.41016 86.4785 6.41016C86.7201 6.41016 86.9046 6.48079 87.0322 6.62207C87.1644 6.76335 87.2305 6.93652 87.2305 7.1416C87.2305 7.33757 87.1644 7.50618 87.0322 7.64746C86.9046 7.78418 86.7201 7.85254 86.4785 7.85254C86.2324 7.85254 86.0456 7.78418 85.918 7.64746C85.7949 7.50618 85.7334 7.33757 85.7334 7.1416ZM93.793 15.0645V6H95.0645V16.5H93.9023L93.793 15.0645ZM88.8164 12.8838V12.7402C88.8164 12.1751 88.8848 11.6624 89.0215 11.2021C89.1628 10.7373 89.361 10.3385 89.6162 10.0059C89.876 9.67318 90.1836 9.41797 90.5391 9.24023C90.8991 9.05794 91.3001 8.9668 91.7422 8.9668C92.207 8.9668 92.6126 9.04883 92.959 9.21289C93.3099 9.3724 93.6061 9.6071 93.8477 9.91699C94.0938 10.2223 94.2874 10.5915 94.4287 11.0244C94.57 11.4574 94.668 11.9473 94.7227 12.4941V13.123C94.6725 13.6654 94.5745 14.153 94.4287 14.5859C94.2874 15.0189 94.0938 15.388 93.8477 15.6934C93.6061 15.9987 93.3099 16.2334 92.959 16.3975C92.6081 16.557 92.1979 16.6367 91.7285 16.6367C91.2956 16.6367 90.8991 16.5433 90.5391 16.3564C90.1836 16.1696 89.876 15.9076 89.6162 15.5703C89.361 15.2331 89.1628 14.8366 89.0215 14.3809C88.8848 13.9206 88.8164 13.4215 88.8164 12.8838ZM90.0879 12.7402V12.8838C90.0879 13.2529 90.1243 13.5993 90.1973 13.9229C90.2747 14.2464 90.3932 14.5312 90.5527 14.7773C90.7122 15.0234 90.915 15.2171 91.1611 15.3584C91.4072 15.4951 91.7012 15.5635 92.043 15.5635C92.4622 15.5635 92.8063 15.4746 93.0752 15.2969C93.3486 15.1191 93.5674 14.8844 93.7314 14.5928C93.8955 14.3011 94.0231 13.9844 94.1143 13.6426V11.9951C94.0596 11.7445 93.9798 11.5029 93.875 11.2705C93.7747 11.0335 93.6426 10.8239 93.4785 10.6416C93.319 10.4548 93.1208 10.3066 92.8838 10.1973C92.6514 10.0879 92.3757 10.0332 92.0566 10.0332C91.7103 10.0332 91.4118 10.1061 91.1611 10.252C90.915 10.3932 90.7122 10.5892 90.5527 10.8398C90.3932 11.0859 90.2747 11.373 90.1973 11.7012C90.1243 12.0247 90.0879 12.3711 90.0879 12.7402ZM103.603 9.10352V10.0742H99.6035V9.10352H103.603ZM100.957 7.30566H102.222V14.668C102.222 14.9186 102.26 15.1077 102.338 15.2354C102.415 15.363 102.516 15.4473 102.639 15.4883C102.762 15.5293 102.894 15.5498 103.035 15.5498C103.14 15.5498 103.249 15.5407 103.363 15.5225C103.482 15.4997 103.571 15.4814 103.63 15.4678L103.637 16.5C103.536 16.5319 103.404 16.5615 103.24 16.5889C103.081 16.6208 102.887 16.6367 102.659 16.6367C102.349 16.6367 102.064 16.5752 101.805 16.4521C101.545 16.3291 101.338 16.124 101.183 15.8369C101.032 15.5452 100.957 15.1533 100.957 14.6611V7.30566ZM106.46 9.10352V16.5H105.188V9.10352H106.46ZM105.093 7.1416C105.093 6.93652 105.154 6.76335 105.277 6.62207C105.405 6.48079 105.592 6.41016 105.838 6.41016C106.079 6.41016 106.264 6.48079 106.392 6.62207C106.524 6.76335 106.59 6.93652 106.59 7.1416C106.59 7.33757 106.524 7.50618 106.392 7.64746C106.264 7.78418 106.079 7.85254 105.838 7.85254C105.592 7.85254 105.405 7.78418 105.277 7.64746C105.154 7.50618 105.093 7.33757 105.093 7.1416ZM109.864 6V16.5H108.593V6H109.864ZM113.269 6V16.5H111.997V6H113.269ZM125.156 15.4609V16.5H118.642V15.5908L121.902 11.9609C122.303 11.5143 122.613 11.1361 122.832 10.8262C123.055 10.5117 123.21 10.2314 123.297 9.98535C123.388 9.7347 123.434 9.47949 123.434 9.21973C123.434 8.8916 123.365 8.59538 123.229 8.33105C123.096 8.06217 122.9 7.84798 122.641 7.68848C122.381 7.52897 122.066 7.44922 121.697 7.44922C121.255 7.44922 120.886 7.53581 120.59 7.70898C120.298 7.8776 120.079 8.11458 119.934 8.41992C119.788 8.72526 119.715 9.07617 119.715 9.47266H118.45C118.45 8.91211 118.573 8.39941 118.819 7.93457C119.065 7.46973 119.43 7.10059 119.913 6.82715C120.396 6.54915 120.991 6.41016 121.697 6.41016C122.326 6.41016 122.864 6.52181 123.311 6.74512C123.757 6.96387 124.099 7.27376 124.336 7.6748C124.577 8.07129 124.698 8.53613 124.698 9.06934C124.698 9.361 124.648 9.65723 124.548 9.95801C124.452 10.2542 124.318 10.5505 124.145 10.8467C123.976 11.1429 123.778 11.4346 123.55 11.7217C123.326 12.0088 123.087 12.2913 122.832 12.5693L120.166 15.4609H125.156ZM128.109 11.7627L127.098 11.5029L127.597 6.54688H132.703V7.71582H128.67L128.369 10.4229C128.551 10.318 128.782 10.2201 129.06 10.1289C129.342 10.0378 129.666 9.99219 130.03 9.99219C130.491 9.99219 130.903 10.0719 131.268 10.2314C131.632 10.3864 131.942 10.6097 132.197 10.9014C132.457 11.193 132.655 11.5439 132.792 11.9541C132.929 12.3643 132.997 12.8223 132.997 13.3281C132.997 13.8066 132.931 14.2464 132.799 14.6475C132.671 15.0485 132.478 15.3994 132.218 15.7002C131.958 15.9964 131.63 16.2266 131.233 16.3906C130.841 16.5547 130.379 16.6367 129.846 16.6367C129.445 16.6367 129.064 16.582 128.704 16.4727C128.349 16.3587 128.03 16.1878 127.747 15.96C127.469 15.7275 127.241 15.4404 127.063 15.0986C126.89 14.7523 126.781 14.3467 126.735 13.8818H127.938C127.993 14.2555 128.103 14.57 128.267 14.8252C128.431 15.0804 128.645 15.2741 128.909 15.4062C129.178 15.5339 129.49 15.5977 129.846 15.5977C130.146 15.5977 130.413 15.5452 130.646 15.4404C130.878 15.3356 131.074 15.1852 131.233 14.9893C131.393 14.7933 131.514 14.5563 131.596 14.2783C131.682 14.0003 131.726 13.6882 131.726 13.3418C131.726 13.0273 131.682 12.7357 131.596 12.4668C131.509 12.1979 131.379 11.9632 131.206 11.7627C131.037 11.5622 130.83 11.4072 130.584 11.2979C130.338 11.1839 130.055 11.127 129.736 11.127C129.312 11.127 128.991 11.1839 128.772 11.2979C128.558 11.4118 128.337 11.5667 128.109 11.7627ZM137.618 9.10352V10.0742H133.619V9.10352H137.618ZM134.973 7.30566H136.237V14.668C136.237 14.9186 136.276 15.1077 136.354 15.2354C136.431 15.363 136.531 15.4473 136.654 15.4883C136.777 15.5293 136.91 15.5498 137.051 15.5498C137.156 15.5498 137.265 15.5407 137.379 15.5225C137.497 15.4997 137.586 15.4814 137.646 15.4678L137.652 16.5C137.552 16.5319 137.42 16.5615 137.256 16.5889C137.096 16.6208 136.903 16.6367 136.675 16.6367C136.365 16.6367 136.08 16.5752 135.82 16.4521C135.561 16.3291 135.353 16.124 135.198 15.8369C135.048 15.5452 134.973 15.1533 134.973 14.6611V7.30566ZM140.366 6V16.5H139.102V6H140.366ZM140.065 12.5215L139.539 12.501C139.544 11.9951 139.619 11.528 139.765 11.0996C139.91 10.6667 140.116 10.2907 140.38 9.97168C140.644 9.65267 140.959 9.40658 141.323 9.2334C141.692 9.05566 142.1 8.9668 142.547 8.9668C142.911 8.9668 143.24 9.01693 143.531 9.11719C143.823 9.21289 144.071 9.36784 144.276 9.58203C144.486 9.79622 144.646 10.0742 144.755 10.416C144.864 10.7533 144.919 11.1657 144.919 11.6533V16.5H143.647V11.6396C143.647 11.2523 143.59 10.9424 143.477 10.71C143.363 10.473 143.196 10.3021 142.978 10.1973C142.759 10.0879 142.49 10.0332 142.171 10.0332C141.856 10.0332 141.569 10.0993 141.31 10.2314C141.054 10.3636 140.833 10.5459 140.646 10.7783C140.464 11.0107 140.321 11.2773 140.216 11.5781C140.116 11.8743 140.065 12.1888 140.065 12.5215ZM150.894 6.54688H152.172L155.433 14.6611L158.687 6.54688H159.972L155.925 16.5H154.927L150.894 6.54688ZM150.477 6.54688H151.604L151.789 12.6172V16.5H150.477V6.54688ZM159.254 6.54688H160.382V16.5H159.069V12.6172L159.254 6.54688ZM166.869 15.2354V11.4277C166.869 11.1361 166.81 10.8831 166.691 10.6689C166.577 10.4502 166.404 10.2816 166.172 10.1631C165.939 10.0446 165.652 9.98535 165.311 9.98535C164.992 9.98535 164.711 10.04 164.47 10.1494C164.233 10.2588 164.046 10.4023 163.909 10.5801C163.777 10.7578 163.711 10.9492 163.711 11.1543H162.446C162.446 10.89 162.515 10.6279 162.651 10.3682C162.788 10.1084 162.984 9.8737 163.239 9.66406C163.499 9.44987 163.809 9.28125 164.169 9.1582C164.534 9.0306 164.939 8.9668 165.386 8.9668C165.924 8.9668 166.397 9.05794 166.808 9.24023C167.222 9.42253 167.546 9.69824 167.778 10.0674C168.015 10.432 168.134 10.89 168.134 11.4414V14.8867C168.134 15.1328 168.154 15.3949 168.195 15.6729C168.241 15.9508 168.307 16.1901 168.394 16.3906V16.5H167.074C167.01 16.3542 166.96 16.1605 166.924 15.9189C166.887 15.6729 166.869 15.445 166.869 15.2354ZM167.088 12.0156L167.102 12.9043H165.823C165.463 12.9043 165.142 12.9339 164.859 12.9932C164.577 13.0479 164.34 13.1322 164.148 13.2461C163.957 13.36 163.811 13.5036 163.711 13.6768C163.611 13.8454 163.561 14.0436 163.561 14.2715C163.561 14.5039 163.613 14.7158 163.718 14.9072C163.823 15.0986 163.98 15.2513 164.189 15.3652C164.404 15.4746 164.666 15.5293 164.976 15.5293C165.363 15.5293 165.705 15.4473 166.001 15.2832C166.297 15.1191 166.532 14.9186 166.705 14.6816C166.883 14.4447 166.979 14.2145 166.992 13.9912L167.532 14.5996C167.5 14.791 167.414 15.0029 167.272 15.2354C167.131 15.4678 166.942 15.6911 166.705 15.9053C166.473 16.1149 166.195 16.2904 165.871 16.4316C165.552 16.5684 165.192 16.6367 164.791 16.6367C164.29 16.6367 163.85 16.5387 163.472 16.3428C163.098 16.1468 162.806 15.8848 162.597 15.5566C162.392 15.224 162.289 14.8525 162.289 14.4424C162.289 14.0459 162.367 13.6973 162.521 13.3965C162.676 13.0911 162.9 12.8382 163.191 12.6377C163.483 12.4326 163.834 12.2777 164.244 12.1729C164.654 12.068 165.112 12.0156 165.618 12.0156H167.088ZM171.388 10.2656V16.5H170.123V9.10352H171.354L171.388 10.2656ZM173.698 9.0625L173.691 10.2383C173.587 10.2155 173.486 10.2018 173.391 10.1973C173.299 10.1882 173.195 10.1836 173.076 10.1836C172.785 10.1836 172.527 10.2292 172.304 10.3203C172.08 10.4115 171.891 10.5391 171.736 10.7031C171.581 10.8672 171.458 11.0632 171.367 11.291C171.281 11.5143 171.224 11.7604 171.196 12.0293L170.841 12.2344C170.841 11.7878 170.884 11.3685 170.971 10.9766C171.062 10.5846 171.201 10.2383 171.388 9.9375C171.575 9.63216 171.812 9.39518 172.099 9.22656C172.39 9.05339 172.737 8.9668 173.138 8.9668C173.229 8.9668 173.334 8.97819 173.452 9.00098C173.571 9.01921 173.653 9.03971 173.698 9.0625ZM177.69 15.5977C177.991 15.5977 178.269 15.5361 178.524 15.4131C178.78 15.29 178.989 15.1214 179.153 14.9072C179.317 14.6885 179.411 14.4401 179.434 14.1621H180.637C180.614 14.5996 180.466 15.0075 180.192 15.3857C179.924 15.7594 179.57 16.0625 179.133 16.2949C178.695 16.5228 178.215 16.6367 177.69 16.6367C177.134 16.6367 176.649 16.5387 176.234 16.3428C175.824 16.1468 175.482 15.8779 175.209 15.5361C174.94 15.1943 174.737 14.8024 174.601 14.3604C174.468 13.9137 174.402 13.4421 174.402 12.9453V12.6582C174.402 12.1615 174.468 11.6921 174.601 11.25C174.737 10.8034 174.94 10.4092 175.209 10.0674C175.482 9.72559 175.824 9.45671 176.234 9.26074C176.649 9.06478 177.134 8.9668 177.69 8.9668C178.269 8.9668 178.775 9.08529 179.208 9.32227C179.641 9.55469 179.98 9.8737 180.227 10.2793C180.477 10.6803 180.614 11.1361 180.637 11.6465H179.434C179.411 11.3411 179.324 11.0654 179.174 10.8193C179.028 10.5732 178.827 10.3773 178.572 10.2314C178.322 10.0811 178.028 10.0059 177.69 10.0059C177.303 10.0059 176.977 10.0833 176.713 10.2383C176.453 10.3887 176.246 10.5938 176.091 10.8535C175.94 11.1087 175.831 11.3936 175.763 11.708C175.699 12.0179 175.667 12.3346 175.667 12.6582V12.9453C175.667 13.2689 175.699 13.5879 175.763 13.9023C175.826 14.2168 175.934 14.5016 176.084 14.7568C176.239 15.012 176.446 15.2171 176.706 15.3721C176.97 15.5225 177.299 15.5977 177.69 15.5977ZM183.323 6V16.5H182.059V6H183.323ZM183.022 12.5215L182.496 12.501C182.501 11.9951 182.576 11.528 182.722 11.0996C182.868 10.6667 183.073 10.2907 183.337 9.97168C183.601 9.65267 183.916 9.40658 184.28 9.2334C184.649 9.05566 185.057 8.9668 185.504 8.9668C185.868 8.9668 186.197 9.01693 186.488 9.11719C186.78 9.21289 187.028 9.36784 187.233 9.58203C187.443 9.79622 187.603 10.0742 187.712 10.416C187.821 10.7533 187.876 11.1657 187.876 11.6533V16.5H186.604V11.6396C186.604 11.2523 186.548 10.9424 186.434 10.71C186.32 10.473 186.153 10.3021 185.935 10.1973C185.716 10.0879 185.447 10.0332 185.128 10.0332C184.813 10.0332 184.526 10.0993 184.267 10.2314C184.011 10.3636 183.79 10.5459 183.604 10.7783C183.421 11.0107 183.278 11.2773 183.173 11.5781C183.073 11.8743 183.022 12.1888 183.022 12.5215ZM199.627 15.4609V16.5H193.112V15.5908L196.373 11.9609C196.774 11.5143 197.084 11.1361 197.303 10.8262C197.526 10.5117 197.681 10.2314 197.768 9.98535C197.859 9.7347 197.904 9.47949 197.904 9.21973C197.904 8.8916 197.836 8.59538 197.699 8.33105C197.567 8.06217 197.371 7.84798 197.111 7.68848C196.852 7.52897 196.537 7.44922 196.168 7.44922C195.726 7.44922 195.357 7.53581 195.061 7.70898C194.769 7.8776 194.55 8.11458 194.404 8.41992C194.258 8.72526 194.186 9.07617 194.186 9.47266H192.921C192.921 8.91211 193.044 8.39941 193.29 7.93457C193.536 7.46973 193.901 7.10059 194.384 6.82715C194.867 6.54915 195.462 6.41016 196.168 6.41016C196.797 6.41016 197.335 6.52181 197.781 6.74512C198.228 6.96387 198.57 7.27376 198.807 7.6748C199.048 8.07129 199.169 8.53613 199.169 9.06934C199.169 9.361 199.119 9.65723 199.019 9.95801C198.923 10.2542 198.788 10.5505 198.615 10.8467C198.447 11.1429 198.248 11.4346 198.021 11.7217C197.797 12.0088 197.558 12.2913 197.303 12.5693L194.637 15.4609H199.627ZM207.229 10.7305V12.248C207.229 13.0638 207.156 13.752 207.01 14.3125C206.864 14.873 206.654 15.3242 206.381 15.666C206.107 16.0078 205.777 16.2562 205.39 16.4111C205.007 16.5615 204.574 16.6367 204.091 16.6367C203.708 16.6367 203.355 16.5889 203.031 16.4932C202.708 16.3975 202.416 16.2448 202.156 16.0352C201.901 15.821 201.682 15.543 201.5 15.2012C201.318 14.8594 201.179 14.4447 201.083 13.957C200.987 13.4694 200.939 12.8997 200.939 12.248V10.7305C200.939 9.91471 201.012 9.23112 201.158 8.67969C201.309 8.12826 201.521 7.6862 201.794 7.35352C202.067 7.01628 202.396 6.77474 202.778 6.62891C203.166 6.48307 203.599 6.41016 204.077 6.41016C204.465 6.41016 204.82 6.45801 205.144 6.55371C205.472 6.64486 205.763 6.79297 206.019 6.99805C206.274 7.19857 206.49 7.46745 206.668 7.80469C206.85 8.13737 206.989 8.54525 207.085 9.02832C207.181 9.51139 207.229 10.0788 207.229 10.7305ZM205.957 12.4531V10.5186C205.957 10.0719 205.93 9.68001 205.875 9.34277C205.825 9.00098 205.75 8.70931 205.649 8.46777C205.549 8.22624 205.422 8.03027 205.267 7.87988C205.116 7.72949 204.941 7.62012 204.74 7.55176C204.544 7.47884 204.323 7.44238 204.077 7.44238C203.776 7.44238 203.51 7.49935 203.277 7.61328C203.045 7.72266 202.849 7.89811 202.689 8.13965C202.535 8.38118 202.416 8.69792 202.334 9.08984C202.252 9.48177 202.211 9.95801 202.211 10.5186V12.4531C202.211 12.8997 202.236 13.2939 202.286 13.6357C202.341 13.9775 202.421 14.2738 202.525 14.5244C202.63 14.7705 202.758 14.9733 202.908 15.1328C203.059 15.2923 203.232 15.4108 203.428 15.4883C203.628 15.5612 203.849 15.5977 204.091 15.5977C204.401 15.5977 204.672 15.5384 204.904 15.4199C205.137 15.3014 205.33 15.1169 205.485 14.8662C205.645 14.611 205.763 14.2852 205.841 13.8887C205.918 13.4876 205.957 13.0091 205.957 12.4531ZM215.377 15.4609V16.5H208.862V15.5908L212.123 11.9609C212.524 11.5143 212.834 11.1361 213.053 10.8262C213.276 10.5117 213.431 10.2314 213.518 9.98535C213.609 9.7347 213.654 9.47949 213.654 9.21973C213.654 8.8916 213.586 8.59538 213.449 8.33105C213.317 8.06217 213.121 7.84798 212.861 7.68848C212.602 7.52897 212.287 7.44922 211.918 7.44922C211.476 7.44922 211.107 7.53581 210.811 7.70898C210.519 7.8776 210.3 8.11458 210.154 8.41992C210.008 8.72526 209.936 9.07617 209.936 9.47266H208.671C208.671 8.91211 208.794 8.39941 209.04 7.93457C209.286 7.46973 209.651 7.10059 210.134 6.82715C210.617 6.54915 211.212 6.41016 211.918 6.41016C212.547 6.41016 213.085 6.52181 213.531 6.74512C213.978 6.96387 214.32 7.27376 214.557 7.6748C214.798 8.07129 214.919 8.53613 214.919 9.06934C214.919 9.361 214.869 9.65723 214.769 9.95801C214.673 10.2542 214.538 10.5505 214.365 10.8467C214.197 11.1429 213.998 11.4346 213.771 11.7217C213.547 12.0088 213.308 12.2913 213.053 12.5693L210.387 15.4609H215.377ZM218.576 10.9014H219.479C219.921 10.9014 220.285 10.8285 220.572 10.6826C220.864 10.5322 221.08 10.3294 221.222 10.0742C221.368 9.81445 221.44 9.52279 221.44 9.19922C221.44 8.81641 221.377 8.49512 221.249 8.23535C221.121 7.97559 220.93 7.77962 220.675 7.64746C220.42 7.5153 220.096 7.44922 219.704 7.44922C219.349 7.44922 219.034 7.51986 218.761 7.66113C218.492 7.79785 218.28 7.99382 218.125 8.24902C217.975 8.50423 217.899 8.80501 217.899 9.15137H216.635C216.635 8.64551 216.762 8.18522 217.018 7.77051C217.273 7.35579 217.631 7.02539 218.091 6.7793C218.556 6.5332 219.093 6.41016 219.704 6.41016C220.306 6.41016 220.832 6.51725 221.283 6.73145C221.734 6.94108 222.085 7.25553 222.336 7.6748C222.587 8.08952 222.712 8.60677 222.712 9.22656C222.712 9.47721 222.653 9.74609 222.534 10.0332C222.42 10.3158 222.24 10.5801 221.994 10.8262C221.753 11.0723 221.438 11.2751 221.051 11.4346C220.663 11.5895 220.199 11.667 219.656 11.667H218.576V10.9014ZM218.576 11.9404V11.1816H219.656C220.29 11.1816 220.814 11.2568 221.229 11.4072C221.643 11.5576 221.969 11.7581 222.206 12.0088C222.448 12.2594 222.616 12.5352 222.712 12.8359C222.812 13.1322 222.862 13.4284 222.862 13.7246C222.862 14.1895 222.783 14.6019 222.623 14.9619C222.468 15.3219 222.247 15.6273 221.96 15.8779C221.677 16.1286 221.345 16.3177 220.962 16.4453C220.579 16.5729 220.162 16.6367 219.711 16.6367C219.278 16.6367 218.87 16.5752 218.487 16.4521C218.109 16.3291 217.774 16.1514 217.482 15.9189C217.191 15.682 216.963 15.3926 216.799 15.0508C216.635 14.7044 216.553 14.3102 216.553 13.8682H217.817C217.817 14.2145 217.893 14.5176 218.043 14.7773C218.198 15.0371 218.417 15.2399 218.699 15.3857C218.986 15.527 219.324 15.5977 219.711 15.5977C220.098 15.5977 220.431 15.5316 220.709 15.3994C220.992 15.2627 221.208 15.0576 221.358 14.7842C221.513 14.5107 221.591 14.1667 221.591 13.752C221.591 13.3372 221.504 12.9977 221.331 12.7334C221.158 12.4645 220.912 12.2663 220.593 12.1387C220.278 12.0065 219.907 11.9404 219.479 11.9404H218.576Z" fill="#DE4313"/>
</svg>
